<svg width="24" height="25" viewBox="0 0 24 25" fill="none" xmlns="http://www.w3.org/2000/svg">
<path d="M9 21.5V14.1C9 13.5399 9 13.2599 9.109 13.046C9.20487 12.8578 9.35785 12.7049 9.54601 12.609C9.75993 12.5 10.04 12.5 10.6 12.5H13.4C13.9601 12.5 14.2401 12.5 14.454 12.609C14.6422 12.7049 14.7951 12.8578 14.891 13.046C15 13.2599 15 13.5399 15 14.1V21.5M2 10L11.04 3.22C11.3843 2.96181 11.5564 2.83271 11.7454 2.78294C11.9123 2.73902 12.0877 2.73902 12.2546 2.78295C12.4436 2.83271 12.6157 2.96181 12.96 3.22L22 10M4 8.5V18.3C4 19.4201 4 19.9802 4.21799 20.408C4.40974 20.7843 4.7157 21.0903 5.09202 21.282C5.51985 21.5 6.0799 21.5 7.2 21.5H16.8C17.9201 21.5 18.4802 21.5 18.908 21.282C19.2843 21.0903 19.5903 20.7843 19.782 20.408C20 19.9802 20 19.4201 20 18.3V8.5L13.92 3.94C13.2315 3.42361 12.8872 3.16542 12.5091 3.06589C12.1754 2.97804 11.8246 2.97804 11.4909 3.06589C11.1128 3.16542 10.7685 3.42361 10.08 3.94L4 8.5Z" stroke="#98A2B3" stroke-width="2" stroke-linecap="round" stroke-linejoin="round"/>
</svg>
