<svg width="24" height="25" viewBox="0 0 24 25" fill="none" xmlns="http://www.w3.org/2000/svg">
<path d="M3 8.3C3 6.61984 3 5.77976 3.32698 5.13803C3.6146 4.57354 4.07354 4.1146 4.63803 3.82698C5.27976 3.5 6.11984 3.5 7.8 3.5H16.2C17.8802 3.5 18.7202 3.5 19.362 3.82698C19.9265 4.1146 20.3854 4.57354 20.673 5.13803C21 5.77976 21 6.61984 21 8.3V13.7C21 15.3802 21 16.2202 20.673 16.862C20.3854 17.4265 19.9265 17.8854 19.362 18.173C18.7202 18.5 17.8802 18.5 16.2 18.5H13.6837C13.0597 18.5 12.7477 18.5 12.4492 18.5613C12.1844 18.6156 11.9282 18.7055 11.6875 18.8285C11.4162 18.9671 11.1725 19.162 10.6852 19.5518L8.29976 21.4602C7.88367 21.7931 7.67563 21.9595 7.50054 21.9597C7.34827 21.9599 7.20422 21.8906 7.10923 21.7716C7 21.6348 7 21.3684 7 20.8355V18.5C6.07003 18.5 5.60504 18.5 5.22354 18.3978C4.18827 18.1204 3.37962 17.3117 3.10222 16.2765C3 15.895 3 15.43 3 14.5V8.3Z" stroke="#98A2B3" stroke-width="2" stroke-linecap="round" stroke-linejoin="round"/>
</svg>
