<svg width="28" height="28" viewBox="0 0 28 28" fill="none" xmlns="http://www.w3.org/2000/svg">
<path d="M7.00001 23.435H10.0453C10.4424 23.435 10.837 23.4822 11.222 23.5767L14.4397 24.3587C15.1379 24.5287 15.8652 24.5453 16.5707 24.4083L20.1285 23.7161C21.0683 23.533 21.9329 23.083 22.6104 22.4239L25.1275 19.9753C25.8464 19.2772 25.8464 18.1445 25.1275 17.4452C24.4804 16.8156 23.4555 16.7448 22.7233 17.2787L19.7897 19.419C19.3696 19.7261 18.8584 19.8914 18.3326 19.8914H15.4998L17.3029 19.8913C18.3192 19.8913 19.1425 19.0905 19.1425 18.1019V17.744C19.1425 16.923 18.5682 16.2072 17.7498 16.0088L14.9667 15.332C14.5138 15.2221 14.0499 15.1666 13.5837 15.1666C12.4581 15.1666 10.4206 16.0986 10.4206 16.0986L7.00001 17.529M2.33334 17.0333L2.33334 23.8C2.33334 24.4534 2.33334 24.7801 2.4605 25.0296C2.57235 25.2491 2.75083 25.4276 2.97035 25.5395C3.21992 25.6666 3.54662 25.6666 4.20001 25.6666H5.13334C5.78674 25.6666 6.11343 25.6666 6.363 25.5395C6.58252 25.4276 6.761 25.2491 6.87285 25.0296C7.00001 24.7801 7.00001 24.4534 7.00001 23.8V17.0333C7.00001 16.3799 7.00001 16.0532 6.87285 15.8036C6.761 15.5841 6.58252 15.4056 6.363 15.2938C6.11344 15.1666 5.78674 15.1666 5.13334 15.1666L4.20001 15.1666C3.54662 15.1666 3.21992 15.1666 2.97035 15.2938C2.75083 15.4056 2.57235 15.5841 2.4605 15.8036C2.33334 16.0532 2.33334 16.3799 2.33334 17.0333Z" stroke="#175CD3" stroke-width="2" stroke-linecap="round" stroke-linejoin="round"/>
<path d="M11.9 9.09998H11.9133" stroke="#175CD3" stroke-width="3.42451" stroke-linecap="round" stroke-linejoin="round"/>
<path d="M17.5 9.09998H17.5133" stroke="#175CD3" stroke-width="3.42451" stroke-linecap="round" stroke-linejoin="round"/>
<path d="M14.7 5.59998H14.7133" stroke="#175CD3" stroke-width="3.42451" stroke-linecap="round" stroke-linejoin="round"/>
<path d="M20.3 5.59998H20.3133" stroke="#175CD3" stroke-width="3.42451" stroke-linecap="round" stroke-linejoin="round"/>
<path d="M23.1 9.09998H23.1133" stroke="#175CD3" stroke-width="3.42451" stroke-linecap="round" stroke-linejoin="round"/>
<path d="M17.5 2.09998H17.5133" stroke="#175CD3" stroke-width="3.42451" stroke-linecap="round" stroke-linejoin="round"/>
</svg>
