<svg width="28" height="28" viewBox="0 0 28 28" fill="none" xmlns="http://www.w3.org/2000/svg">
<path d="M5.83333 10.5V19.8333M11.0833 10.5V19.8333M16.9167 10.5V19.8333M22.1667 10.5V19.8333M3.5 21.7L3.5 22.6333C3.5 23.2867 3.5 23.6134 3.62716 23.863C3.73901 24.0825 3.91749 24.261 4.13701 24.3728C4.38657 24.5 4.71327 24.5 5.36667 24.5H22.6333C23.2867 24.5 23.6134 24.5 23.863 24.3728C24.0825 24.261 24.261 24.0825 24.3728 23.863C24.5 23.6134 24.5 23.2867 24.5 22.6333V21.7C24.5 21.0466 24.5 20.7199 24.3728 20.4703C24.261 20.2508 24.0825 20.0723 23.863 19.9605C23.6134 19.8333 23.2867 19.8333 22.6333 19.8333H5.36667C4.71327 19.8333 4.38657 19.8333 4.13701 19.9605C3.91749 20.0723 3.73901 20.2508 3.62716 20.4703C3.5 20.7199 3.5 21.0466 3.5 21.7ZM13.5951 3.58997L4.96173 5.50849C4.44016 5.62439 4.17937 5.68234 3.98471 5.82259C3.81301 5.94629 3.67818 6.11436 3.59467 6.30881C3.5 6.52926 3.5 6.79641 3.5 7.3307L3.5 8.63331C3.5 9.28671 3.5 9.61341 3.62716 9.86297C3.73901 10.0825 3.91749 10.261 4.13701 10.3728C4.38657 10.5 4.71327 10.5 5.36667 10.5H22.6333C23.2867 10.5 23.6134 10.5 23.863 10.3728C24.0825 10.261 24.261 10.0825 24.3728 9.86297C24.5 9.61341 24.5 9.28671 24.5 8.63332V7.3307C24.5 6.79641 24.5 6.52926 24.4053 6.30881C24.3218 6.11436 24.187 5.94629 24.0153 5.82259C23.8206 5.68234 23.5598 5.62439 23.0383 5.50849L14.4049 3.58997C14.2538 3.55639 14.1783 3.5396 14.1019 3.5329C14.0341 3.52696 13.9659 3.52696 13.8981 3.5329C13.8217 3.5396 13.7462 3.55639 13.5951 3.58997Z" stroke="#C11574" stroke-width="2" stroke-linecap="round" stroke-linejoin="round"/>
</svg>
