<svg width="28" height="28" viewBox="0 0 28 28" fill="none" xmlns="http://www.w3.org/2000/svg">
<path d="M16.3333 12.8334H9.33332M11.6667 17.5H9.33332M18.6667 8.16671H9.33332M23.3333 7.93337V20.0667C23.3333 22.0269 23.3333 23.007 22.9518 23.7557C22.6163 24.4142 22.0809 24.9497 21.4223 25.2852C20.6736 25.6667 19.6935 25.6667 17.7333 25.6667H10.2667C8.30647 25.6667 7.32638 25.6667 6.57769 25.2852C5.91912 24.9497 5.38369 24.4142 5.04813 23.7557C4.66666 23.007 4.66666 22.0269 4.66666 20.0667V7.93337C4.66666 5.97319 4.66666 4.9931 5.04813 4.24441C5.38369 3.58584 5.91912 3.05041 6.57769 2.71485C7.32638 2.33337 8.30647 2.33337 10.2667 2.33337H17.7333C19.6935 2.33337 20.6736 2.33337 21.4223 2.71485C22.0809 3.05041 22.6163 3.58584 22.9518 4.24441C23.3333 4.9931 23.3333 5.97319 23.3333 7.93337Z" stroke="#C11574" stroke-width="2" stroke-linecap="round" stroke-linejoin="round"/>
</svg>
