<svg width="28" height="28" viewBox="0 0 28 28" fill="none" xmlns="http://www.w3.org/2000/svg">
<path d="M15.1667 5.83333C15.1667 7.122 12.2938 8.16667 8.75 8.16667C5.20618 8.16667 2.33334 7.122 2.33334 5.83333M15.1667 5.83333C15.1667 4.54467 12.2938 3.5 8.75 3.5C5.20618 3.5 2.33334 4.54467 2.33334 5.83333M15.1667 5.83333V11.0333C13.7416 11.4613 12.8333 12.1088 12.8333 12.8333M2.33334 5.83333V19.8333C2.33334 21.122 5.20618 22.1667 8.75 22.1667C10.3012 22.1667 11.7239 21.9665 12.8333 21.6333V12.8333M2.33334 10.5C2.33334 11.7887 5.20618 12.8333 8.75 12.8333C10.3012 12.8333 11.7239 12.6332 12.8333 12.3M2.33334 15.1667C2.33334 16.4553 5.20618 17.5 8.75 17.5C10.3012 17.5 11.7239 17.2998 12.8333 16.9667M25.6667 12.8333C25.6667 14.122 22.7938 15.1667 19.25 15.1667C15.7062 15.1667 12.8333 14.122 12.8333 12.8333M25.6667 12.8333C25.6667 11.5447 22.7938 10.5 19.25 10.5C15.7062 10.5 12.8333 11.5447 12.8333 12.8333M25.6667 12.8333V22.1667C25.6667 23.4553 22.7938 24.5 19.25 24.5C15.7062 24.5 12.8333 23.4553 12.8333 22.1667V12.8333M25.6667 17.5C25.6667 18.7887 22.7938 19.8333 19.25 19.8333C15.7062 19.8333 12.8333 18.7887 12.8333 17.5" stroke="#5925DC" stroke-width="2" stroke-linecap="round" stroke-linejoin="round"/>
</svg>
