<svg width="28" height="28" viewBox="0 0 28 28" fill="none" xmlns="http://www.w3.org/2000/svg">
<path d="M14 24.5L13.8833 24.3249C13.0729 23.1093 12.6676 22.5015 12.1323 22.0615C11.6583 21.6719 11.1122 21.3796 10.5252 21.2014C9.86213 21 9.13163 21 7.67063 21H6.06667C4.75988 21 4.10649 21 3.60736 20.7457C3.16831 20.522 2.81136 20.165 2.58765 19.726C2.33334 19.2268 2.33334 18.5735 2.33334 17.2667V7.23333C2.33334 5.92654 2.33334 5.27315 2.58765 4.77402C2.81136 4.33498 3.16831 3.97802 3.60736 3.75432C4.10649 3.5 4.75988 3.5 6.06667 3.5H6.53334C9.14691 3.5 10.4537 3.5 11.452 4.00864C12.33 4.45605 13.044 5.16995 13.4914 6.04804C14 7.0463 14 8.35309 14 10.9667M14 24.5V10.9667M14 24.5L14.1167 24.3249C14.9271 23.1093 15.3324 22.5015 15.8677 22.0615C16.3417 21.6719 16.8878 21.3796 17.4748 21.2014C18.1379 21 18.8684 21 20.3294 21H21.9333C23.2401 21 23.8935 21 24.3926 20.7457C24.8317 20.522 25.1886 20.165 25.4124 19.726C25.6667 19.2268 25.6667 18.5735 25.6667 17.2667V7.23333C25.6667 5.92654 25.6667 5.27315 25.4124 4.77402C25.1886 4.33498 24.8317 3.97802 24.3926 3.75432C23.8935 3.5 23.2401 3.5 21.9333 3.5H21.4667C18.8531 3.5 17.5463 3.5 16.548 4.00864C15.67 4.45605 14.956 5.16995 14.5086 6.04804C14 7.0463 14 8.35309 14 10.9667" stroke="#175CD3" stroke-width="2" stroke-linecap="round" stroke-linejoin="round"/>
</svg>
