<svg width="28" height="28" viewBox="0 0 28 28" fill="none" xmlns="http://www.w3.org/2000/svg">
<path d="M25.6667 24.5V22.1667C25.6667 19.9922 24.1794 18.1651 22.1667 17.647M18.0833 3.83922C19.7936 4.5315 21 6.2082 21 8.16667C21 10.1251 19.7936 11.8018 18.0833 12.4941M19.8333 24.5C19.8333 22.3256 19.8333 21.2384 19.4781 20.3808C19.0045 19.2373 18.096 18.3289 16.9525 17.8552C16.0949 17.5 15.0077 17.5 12.8333 17.5H9.33334C7.15895 17.5 6.07175 17.5 5.21415 17.8552C4.07069 18.3289 3.16221 19.2373 2.68857 20.3808C2.33334 21.2384 2.33334 22.3256 2.33334 24.5M15.75 8.16667C15.75 10.744 13.6607 12.8333 11.0833 12.8333C8.50601 12.8333 6.41668 10.744 6.41668 8.16667C6.41668 5.58934 8.50601 3.5 11.0833 3.5C13.6607 3.5 15.75 5.58934 15.75 8.16667Z" stroke="#C11574" stroke-width="2" stroke-linecap="round" stroke-linejoin="round"/>
</svg>
