<svg width="28" height="28" viewBox="0 0 28 28" fill="none" xmlns="http://www.w3.org/2000/svg">
<path d="M23.9166 8.49076L14 14M14 14L4.0833 8.49076M14 14L14 25.0834M24.5 18.735V9.26508C24.5 8.86533 24.5 8.66545 24.4411 8.48719C24.389 8.32948 24.3038 8.18472 24.1913 8.06258C24.064 7.92452 23.8893 7.82745 23.5399 7.63332L14.9065 2.83702C14.5757 2.6532 14.4102 2.56129 14.235 2.52526C14.08 2.49337 13.92 2.49337 13.765 2.52526C13.5898 2.56129 13.4243 2.6532 13.0935 2.83702L4.46013 7.63332C4.11069 7.82746 3.93597 7.92452 3.80874 8.06258C3.69618 8.18472 3.61101 8.32948 3.5589 8.48719C3.5 8.66545 3.5 8.86533 3.5 9.26508V18.735C3.5 19.1348 3.5 19.3347 3.5589 19.5129C3.61101 19.6706 3.69618 19.8154 3.80874 19.9375C3.93597 20.0756 4.11069 20.1727 4.46013 20.3668L13.0935 25.1631C13.4243 25.3469 13.5898 25.4388 13.765 25.4749C13.92 25.5067 14.08 25.5067 14.235 25.4749C14.4102 25.4388 14.5757 25.3469 14.9065 25.1631L23.5399 20.3668C23.8893 20.1727 24.064 20.0756 24.1913 19.9375C24.3038 19.8154 24.389 19.6706 24.4411 19.5129C24.5 19.3347 24.5 19.1348 24.5 18.735Z" stroke="#5925DC" stroke-width="2" stroke-linecap="round" stroke-linejoin="round"/>
<path d="M19.25 11.0833L8.75 5.25" stroke="#5925DC" stroke-width="1.5" stroke-linecap="round" stroke-linejoin="round"/>
</svg>
