<svg width="28" height="28" viewBox="0 0 28 28" fill="none" xmlns="http://www.w3.org/2000/svg">
<path d="M12.25 1.75V3.61667M4.2 11.6667H2.33334M6.35973 5.7766L5.0398 4.45667M18.1414 5.7766L19.4614 4.45667M22.1667 11.6667H20.3M7.58342 11.6668C7.58342 9.08942 9.67276 7.00008 12.2501 7.00008C14.0071 7.00008 15.5373 7.97108 16.3334 9.40573M7 25.6667C4.42267 25.6667 2.33334 23.5773 2.33334 21C2.33334 18.4227 4.42267 16.3333 7 16.3333C7.54155 16.3333 8.06156 16.4256 8.54516 16.5952C9.38071 14.3962 11.5078 12.8333 14 12.8333C16.4922 12.8333 18.6193 14.3962 19.4548 16.5952C19.9384 16.4256 20.4585 16.3333 21 16.3333C23.5773 16.3333 25.6667 18.4227 25.6667 21C25.6667 23.5773 23.5773 25.6667 21 25.6667C15.5863 25.6667 11.5257 25.6667 7 25.6667Z" stroke="#175CD3" stroke-width="2" stroke-linecap="round" stroke-linejoin="round"/>
</svg>
