<svg width="18" height="19" viewBox="0 0 18 19" fill="none" xmlns="http://www.w3.org/2000/svg">
<path d="M16.5 7.82198H1.5M12.3333 1.15532V4.48865M5.66667 1.15532V4.48865M5.5 17.822H12.5C13.9001 17.822 14.6002 17.822 15.135 17.5495C15.6054 17.3098 15.9878 16.9274 16.2275 16.457C16.5 15.9222 16.5 15.2221 16.5 13.822V6.82198C16.5 5.42185 16.5 4.72179 16.2275 4.18701C15.9878 3.7166 15.6054 3.33415 15.135 3.09447C14.6002 2.82198 13.9001 2.82198 12.5 2.82198H5.5C4.09987 2.82198 3.3998 2.82198 2.86502 3.09447C2.39462 3.33415 2.01217 3.7166 1.77248 4.18701C1.5 4.72179 1.5 5.42185 1.5 6.82198V13.822C1.5 15.2221 1.5 15.9222 1.77248 16.457C2.01217 16.9274 2.39462 17.3098 2.86502 17.5495C3.3998 17.822 4.09987 17.822 5.5 17.822Z" stroke="#98A2B3" stroke-width="2" stroke-linecap="round" stroke-linejoin="round"/>
</svg>
