<svg width="20" height="21" viewBox="0 0 20 21" fill="none" xmlns="http://www.w3.org/2000/svg">
<path d="M17.8938 5.6493C18.013 5.20475 17.7491 4.7478 17.3046 4.62868C16.86 4.50956 16.4031 4.77338 16.284 5.21794L16.1934 5.55588C13.7943 2.53591 9.48232 1.64615 6.04167 3.63261C3.76208 4.94873 2.38518 7.22804 2.1267 9.65642C2.07799 10.1141 2.4095 10.5246 2.86715 10.5733C3.3248 10.622 3.73529 10.2905 3.784 9.83283C3.98853 7.91139 5.07627 6.11448 6.875 5.07599C9.50497 3.55757 12.7798 4.16781 14.7044 6.37214L14.4178 6.29535C13.9733 6.17623 13.5163 6.44005 13.3972 6.8846C13.2781 7.32916 13.5419 7.7861 13.9865 7.90522L16.2632 8.51526C16.7077 8.63438 17.1647 8.37056 17.2838 7.92601L17.8938 5.6493Z" fill="white"/>
<path d="M17.8733 11.3209C17.922 10.8632 17.5905 10.4527 17.1328 10.404C16.6752 10.3553 16.2647 10.6868 16.216 11.1445C16.0114 13.0659 14.9237 14.8628 13.125 15.9013C10.495 17.4197 7.22015 16.8095 5.29551 14.6051L5.58216 14.682C6.02672 14.8011 6.48367 14.5373 6.60279 14.0927C6.7219 13.6481 6.45808 13.1912 6.01353 13.0721L3.73682 12.462C3.29226 12.3429 2.83532 12.6067 2.7162 13.0513L2.10616 15.328C1.98704 15.7726 2.25086 16.2295 2.69541 16.3486C3.13997 16.4677 3.59691 16.2039 3.71603 15.7594L3.80658 15.4215C6.2057 18.4414 10.5177 19.3312 13.9583 17.3447C16.2379 16.0286 17.6148 13.7493 17.8733 11.3209Z" fill="white"/>
</svg>
